<svg width="240" height="175" xmlns="http://www.w3.org/2000/svg"><g fill="none" fill-rule="evenodd"><path d="M120.512 168.725l.048-7.212a98.596 98.596 0 0 1-10.008 2.26c.38.075.38.075 0 0a98.368 98.368 0 0 1-17.3 1.42 98.352 98.352 0 0 1-17.278-1.652c-.38.069-.38.069 0 0a98.507 98.507 0 0 1-9.976-2.395l-.048 7.182.006.002c0-.002.001 0 .001 0 0 .01-.005.021-.005.034-.014 2.006 4.01 3.82 10.29 5.021 4.65.889 10.537 1.442 16.944 1.485 6.407.043 12.296-.43 16.958-1.255 6.298-1.116 10.35-2.876 10.363-4.884l-.002-.019.002.012h.005" fill="#ED9547"/><path d="M120.555 161.522c-.023 3.493-12.253 6.241-27.32 6.14-15.064-.1-27.258-3.014-27.234-6.507.023-3.491 12.255-6.24 27.32-6.138 15.065.1 27.259 3.014 27.234 6.505" fill="#FFD878"/><path d="M99.367 165.376l-1.73-1.007c-2.833-.023-6.033-.215-8.124-.469l-.24-.52.317-.135c2.109.242 4.916.44 7.603.448 3.404.013 4.961-.392 3.923-.967-1.001-.555-3.434-.898-7.393-1.199-5.377-.395-9.005-.845-10.397-1.702-1.329-.817.243-1.454 4.007-1.63l-1.985-.868.248-.14 2.655-.025 1.716.974c2.647.002 4.73.15 6.314.316l.128.674s-.225.137-.332.126c-1.218-.12-3.263-.454-5.854-.438-3.393.018-3.907.482-3.24.88.867.514 2.98.768 7.568 1.12 5.48.418 8.856.945 10.538 1.848 1.493.803.232 1.543-4.45 1.691l1.834 1.043-.344.12-2.762-.14z" fill="#D17D2E"/><path d="M99.016 165.496l-1.722-1.007c-2.837-.023-6.044-.215-8.133-.468l.085-.655c2.11.241 4.918.44 7.61.45 3.414.014 4.978-.392 3.944-.966-.996-.554-3.428-.897-7.392-1.199-5.383-.396-9.013-.845-10.398-1.7-1.32-.818.263-1.453 4.038-1.628l-1.728-1.008 2.66-.023 1.707.973c2.655.002 4.738.15 6.326.316l.118.673a57.477 57.477 0 0 0-6.194-.314c-3.403.018-3.922.481-3.26.878.864.516 2.979.77 7.57 1.121 5.49.42 8.865.946 10.54 1.849 1.484.803.211 1.541-4.482 1.687l1.824 1.042-3.113-.021z" fill="#ED9547"/><path d="M165.995 61.204l-37.769-22.045-.199.387-.27-.338c-8.478 6.815-19.949 16.078-29.994 21.668-1.171.653-2.71 1.472-4.544 2.224-.411.153-.86.32-1.338.5-4.553 1.702-5.901 2.639-10.842 3.789-1.189.12-15.475 1.504-17.11 1.639-6.54.535-13.216 1.336-16.543 3.319l.025.04c-4.553 2.363-13.692 4.845-20.21 7.4-12.094 4.74-18.234 5.87-19.523 9.61-.215.628-.607 1.014-.28 1.568l.375-.22.031.231c6.01 5.82 7.753 4.496 12.19 4.219.416-.026 1.446-.098 1.853-.213-.353.31-.702.617-1.04.893-1.153.942-2.325 1.896-3.504 2.856-5.56 4.52-11.301 9.192-16.14 13.76l-.13-.097c-1.341 1.817-1.318 3.622.066 5.084 2.39 2.526 8.053 3.284 11.408 1.68-4.47 6.602-6.046 9.554-6.189 10.877-.452.721-.435 1.508.05 2.278 1.177 1.871 5.097 3.317 7.274 3.072 1.666-.186 3.27-.691 4.825-1.445 5.671-2.748 10.673-8.797 15.545-14.688 4.212-5.095 8.191-9.906 12.472-12.585 3.23-2.024 8.858-4.406 13.38-6.322 1.051-.447 2.04-.865 2.943-1.257a295.638 295.638 0 0 0-3.437 4.618l.35.254-.364-.23c-1.422 2.26-6.864 18.69-7.939 30.857l.434.037-.433.049.102.903c1.22 11.039 2.103 19.016 5.421 29.386.586 1.59 2.03 2.457 3.155 2.395l.018.064c.102-.028.191-.066.292-.095a16.67 16.67 0 0 0 2.464-.94c3.004-1.456 4.005-4.148 5.262-6.746 2.165-4.475 3.252-9.666 3.394-14.956.05-1.825.096-3.55.22-5.182.927-12.01 6.209-22.521 15.274-30.395 1.17-1.02 2.19-1.942 3.104-2.768 4.72-4.277 6.433-5.809 11.77-4.725l-.017.12c7.096.945 17.534 6.959 24.937 12.269l.012-.017c2.026 1.437 3.716 7.16 4.638 12.147 1.965 10.65-1.212 15.872-6.486 24.528-2.392 3.928-4.195 8.795-4.618 13.46-.328 3.628-.25 7.084 3.798 10.197l-.003.009.024.002c.001.003.001.004.003.005h.002c.48.174 1.027.094 1.642-.204 1.937-.939 4.535-4.003 7.825-7.88 1.07-1.26 2.193-2.585 3.354-3.904a239.11 239.11 0 0 1 3.569-3.924c3.25-3.522 6.337-6.875 7.552-9.218l.07.021c.045-.147.09-.3.133-.449a4.75 4.75 0 0 0 .256-.694l-.042-.011c.43-1.44.86-2.912 1.296-4.417 1.218-4.208 2.478-8.558 3.96-12.6 5.561-15.186 7.143-40.515 8.895-52.82.587-4.12 7.218-12.279 8.736-16.4l-5.435-.63z" fill="#EFBE8D"/><path d="M7.804 90.976c.45.436.87.821 1.275 1.181 2.226-1.33 4.617-2.863 6.928-3.85 2.105-.899 9.203-3.89 11.743-4.967 6.459-2.74 8.46-3.411 14.968-6.046 3.418-1.384 7.743-2.83 11.245-4 3.034-1.013 6.347-1.669 9.426-2.514 2.724-.744 7.328-1.534 10.19-1.435 1.273.044.56.876 1.913.84 2.103-1.037 4.199-2.101 6.372-2.995-.262.065-.536.13-.825.198-1.19.12-15.475 1.506-17.11 1.64-6.54.536-13.216 1.336-16.543 3.32l.025.04c-4.553 2.362-13.692 4.845-20.21 7.4-12.094 4.74-18.234 5.869-19.523 9.609-.215.628-.607 1.014-.28 1.568l.375-.22.031.231z" fill="#FBCA99"/><path d="M75.479 69.27c-4.006 1.358-12.706 4.599-16.729 5.879-4.859 1.547-9.502 3.786-14.293 5.53-4.763 1.734-9.098 3.701-13.174 6.78-3.705 2.8-7.1 5.953-10.509 9.101-.228.212-.533.101-.67-.112l-2.8 2.282c-5.562 4.522-11.302 9.192-16.14 13.76l-.132-.095c-1.34 1.816-1.317 3.621.067 5.083.212.224.458.43.717.625 3.108-2.316 5.586-4.66 8.671-7.548 3.12-2.92 7.05-6.968 10.24-9.796 3.572-3.166 7.315-6.662 10.78-9.936 3.371-3.186 9.793-5.816 13.97-7.858 4.345-2.125 12.596-5.337 16.978-7.383 4.37-2.04 2.867-1.512 7.388-3.217 1.416-.535 6.184-3.28 5.636-3.095" fill="#FBCA99"/><path d="M128.227 39.16l.135-.605-.606.653c-8.477 6.815-19.948 16.077-29.993 21.668-1.171.653-2.71 1.471-4.544 2.224-.411.152-.86.32-1.34.5l-.474.18c-2.605 1.62-5.513 1.99-8.351 3.15-.802.327-1.512.383-2.298.75-.459-.177-1.619.224-1.758.368-1.251 1.316-1.518.857-3.182 1.664-1.68.827-3.25 2.004-5 2.663-4.795 1.81-8.503 3.667-13.163 5.776-4.401 1.993-9.675 5.191-13.99 7.369-4.879 2.46-8.968 5.578-12.82 9.428-1.176 1.172-2.337 2.37-3.51 3.555.237.1.406.376.216.649-2.092 3.001-4.754 5.543-6.936 8.478-.125.167-8.405 11.67-8.106 11.53-4.471 6.6-6.046 9.552-6.189 10.875-.452.721-.435 1.508.05 2.278.505.801 1.513 1.523 2.667 2.07 4.351-5.42 13.212-21.83 20.858-30.697C38.711 93.466 41.45 89.87 63.73 80.143c24.03-10.495 43.05-14.102 68.325-37.945l-3.828-3.039z" fill="#FBCA99"/><path d="M60.114 167.421c.101-.028.19-.066.292-.095.073-.022.14-.049.212-.072-.69-7.681-.46-8.591-1.81-13.355-2.202-7.772-2.694-13.63-2.42-18.463.532-9.347 1.326-18.123 6.258-26.256 2.548-4.197 10.383-15.41 16.755-22.275 3.952-4.257 8.583-10.678 12.952-14.503 6.85-6 11.27-8.677 12.979-10.325-5.358 2.176-16.015 5.838-22.266 12.094-.055.198-2.666 3.477-2.818 3.661-6.917 8.428-17.662 21.352-17.44 21.256a295.639 295.639 0 0 0-3.438 4.618l.35.254-.364-.231c-1.422 2.262-6.864 18.69-7.939 30.858l.434.037-.433.049.101.902c1.222 11.04 2.104 19.017 5.422 29.387.586 1.59 2.03 2.457 3.154 2.395l.019.064z" fill="#FBCA99"/><path d="M53.887 149.362s6.52 1.932 7.6 8.58c.626 3.85.416 3.794.416 3.794s-4.057 2.82-5.19 1.66c-1.138-1.161-2.826-14.034-2.826-14.034" fill="#FFD4A5"/><path d="M137.677 160.857s-6.608-1.604-10.89 3.599c-2.478 3.01-2.27 3.068-2.27 3.068s2.084 4.478 3.652 4.043c1.564-.432 9.508-10.71 9.508-10.71" fill="#F8CC9B"/><path d="M15.864 115.7s3.206 5.99-.774 11.431c-2.3 3.147-2.408 2.96-2.408 2.96s-4.86-.9-4.834-2.521c.031-1.623 8.016-11.87 8.016-11.87m-3.334-12.67s1.113 5.917-3.662 9.761c-2.766 2.227-2.805 2.037-2.805 2.037s-3.847-1.857-3.395-3.26c.453-1.404 9.862-8.538 9.862-8.538m8.529-21.059s-1.288 4.452-6.107 6.586c-2.79 1.237-2.754 1.095-2.754 1.095s-2.128-1.88-1.301-2.838c.823-.957 10.162-4.843 10.162-4.843" fill="#FFD4A5"/><path d="M148.236 149.238l-.911-.278a430.93 430.93 0 0 0 1.637-5.557c1.223-4.223 2.489-8.59 3.98-12.661 6.641-18.123 7.935-34.952 8.712-51.22.168-3.544 10.116-16.786 11.656-21.418l1.044.714c-1.518 3.7-11.639 17.62-11.768 21.03-.624 16.306-2.115 33.116-8.75 51.22-1.48 4.041-2.742 8.393-3.957 12.6-.554 1.907-1.095 3.778-1.643 5.57" fill="#DFA478"/><path d="M125.842 174.166c-.635.308-1.205.39-1.703.2l.345-.89c1.386.535 4.988-3.708 8.47-7.812 1.075-1.266 2.203-2.595 3.37-3.919 1.12-1.276 2.356-2.613 3.584-3.945 3.565-3.863 7.253-7.86 7.797-9.95l.92.242c-.606 2.32-4.206 6.221-8.016 10.354-1.222 1.325-2.45 2.656-3.57 3.927-1.163 1.32-2.287 2.645-3.358 3.906-3.288 3.877-5.89 6.943-7.84 7.887" fill="#DFA478"/><path d="M124.157 174.367c-4.055-3.106-4.277-6.645-3.97-10.265.399-4.698 2.348-9.51 4.758-13.465 5.264-8.645 8.44-13.863 6.48-24.496-.945-5.115-2.698-11.016-4.787-12.239l.482-.82c2.896 1.696 4.629 9.577 5.24 12.886 2.029 10.991-1.405 16.628-6.601 25.164-2.487 4.083-4.362 8.774-4.65 13.256-.211 3.278-.022 6.43 3.628 9.225l-.58.754zm-61.264-7.947a16.78 16.78 0 0 1-2.766 1.04l-.26-.914c4.314-1.222 5.937-4.066 7.455-7.215 2.083-4.321 3.154-9.523 3.292-14.672.05-1.836.098-3.572.225-5.227.943-12.252 6.332-22.976 15.584-31.012a194.594 194.594 0 0 0 3.086-2.755c3.028-2.742 4.953-4.486 7.482-5.073 1.543-.358 3.309-.284 5.688.256l-.21.927c-5.795-1.317-7.44.176-12.32 4.595-.912.827-1.93 1.749-3.104 2.768-9.057 7.868-14.33 18.369-15.257 30.368-.125 1.63-.171 3.353-.221 5.178-.14 5.23-1.214 10.51-3.303 14.964-1.256 2.68-2.293 5.28-5.371 6.772" fill="#DFA478"/><path d="M126.79 114.036c-7.4-5.307-17.832-11.316-24.917-12.261l.128-.944c7.257.97 17.85 7.057 25.344 12.433l-.554.772zm-31.113-51.04c-.889.43-1.878.87-2.954 1.279l-.337-.891c2.189-.83 4.013-1.795 5.359-2.545 10.042-5.59 21.907-15.13 30.377-21.942l.703.701c-8.528 6.858-20.542 16.464-30.618 22.072-.716.4-1.564.858-2.53 1.326M83.929 73.335c-3.81 5.285-7.93 10.326-11.96 15.429a618.216 618.216 0 0 0-5.998 7.692c-1.965 2.59-3.958 5.156-5.864 7.784l-.772-.558c1.92-2.636 3.867-5.249 5.898-7.798a609.701 609.701 0 0 1 6.12-7.612c4.112-5.045 8.248-10.067 12.576-14.937" fill="#DFA478"/><path d="M52.324 134.667l-.948-.083c1.073-12.17 6.52-28.61 7.942-30.876l.806.506c-1.393 2.219-6.737 18.414-7.8 30.453" fill="#DFA478"/><path d="M60.416 167.366c-1.175.267-2.866-.63-3.515-2.39-3.319-10.374-4.2-18.351-5.423-29.39l-.101-.909.948-.106.1.91c1.216 10.984 2.096 18.92 5.379 29.185.503 1.37 1.742 1.921 2.398 1.773l.214.927zm-41.929-33.39c-1.561.756-3.17 1.264-4.84 1.451-2.213.248-6.098-1.157-7.315-3.091-.495-.785-.512-1.59-.047-2.327l.807.507c-.267.423-.251.839.047 1.313.982 1.562 4.554 2.86 6.402 2.653 7.379-.83 13.678-8.444 19.767-15.808 4.264-5.155 8.286-10.021 12.692-12.777 3.29-2.06 8.957-4.463 13.51-6.391a229.681 229.681 0 0 0 4.413-1.902l.393.868c-1.236.556-2.77 1.205-4.433 1.909-4.523 1.916-10.15 4.301-13.379 6.321-4.274 2.676-8.25 7.484-12.46 12.576-4.873 5.893-9.877 11.946-15.557 14.698" fill="#DFA478"/><path d="M6.546 130.911c-1.193-.93.994-5.275 16.263-26.444a727.421 727.421 0 0 0 2.368-3.297l.778.55c-.574.81-1.394 1.947-2.373 3.303-4.605 6.387-16.843 23.35-16.382 25.227a.19.19 0 0 0-.068-.089l-.586.75z" fill="#DFA478"/><path d="M24.749 103.175l-.743-.598c1.033-1.278 2.058-2.721 3.047-4.116 1.69-2.383 3.288-4.635 4.983-6.227 3.076-2.888 10.986-7.083 17.34-10.451.908-.482 1.776-.942 2.58-1.372l.45.839c-.805.431-1.675.892-2.582 1.372-5.973 3.167-14.151 7.505-17.136 10.305-1.625 1.526-3.196 3.74-4.857 6.085-1 1.406-2.033 2.861-3.082 4.163" fill="#DFA478"/><path d="M77.638 69.53c-3.3 1.599-6.18 2.835-9.185 4.124-4.62 1.982-9.398 4.032-16.047 7.596l-.45-.839c6.69-3.584 11.482-5.64 16.12-7.631 3.976-1.706 7.73-3.315 12.522-5.8l.44.846a141.9 141.9 0 0 1-3.4 1.704" fill="#DFA478"/><path d="M94.733 63.511c-.597.218-1.193.44-1.797.664-3.395 1.26-6.906 2.563-12.016 3.692l-.206-.928c5.046-1.116 8.523-2.408 11.889-3.656.606-.225 1.205-.448 1.805-.666l.325.894zM1.52 113.402l-.656-.69c4.89-4.646 10.746-9.407 16.409-14.012 1.182-.96 2.355-1.914 3.507-2.857 1.733-1.418 3.71-3.355 5.452-5.063 2.472-2.422 4.42-4.342 5.526-4.75l.337.89c-.927.345-2.995 2.382-5.196 4.54-1.756 1.72-3.749 3.674-5.515 5.119a1336.71 1336.71 0 0 1-3.508 2.858c-5.65 4.594-11.49 9.343-16.356 13.965" fill="#DFA478"/><path d="M12.56 119.181c-3.364 1.631-9.083.871-11.492-1.673-1.4-1.48-1.425-3.303-.068-5.138l.765.565c-1.08 1.463-1.081 2.78-.003 3.919 2.27 2.397 8.094 3.016 10.943 1.154l.522.798a6.14 6.14 0 0 1-.667.375m66.821-50.973c-12.865 4.214-36.531 13.1-47.491 18.813l-.441-.844c10.997-5.736 34.74-14.65 47.636-18.873l.296.904z" fill="#DFA478"/><path d="M81.652 67.745c-1.246.291-1.99.362-3.226.482-.613.059-1.354.13-2.342.246l-.114-.944c1-.117 1.746-.19 2.364-.25 1.237-.118 1.917-.183 3.1-.46l.218.926zM23.713 94.527c-.5.088-1.089.231-1.75.394-4.001.977-10.698 2.613-14.598-3.934l.816-.485c3.544 5.94 9.568 4.469 13.556 3.494a30.125 30.125 0 0 1 1.811-.407l.165.938z" fill="#DFA478"/><path d="M52.664 70.883c-4.481 2.06-11.09 4.313-18.087 6.7-11.824 4.033-25.227 8.602-26.47 11.963-.129.346-.105.651.076.957l-.82.484c-.329-.556-.38-1.153-.149-1.773 1.397-3.782 13.863-8.033 27.056-12.533 6.974-2.379 13.559-4.624 17.997-6.663l.397.865z" fill="#DFA478"/><path d="M76.057 68.476l-2.178.134c-6.398.391-16.064.978-21.736 2.479l-.246-.92c5.765-1.525 15.489-2.117 21.924-2.51l2.175-.133.06.95zm89.521-6.462l-37.28-22.567-.052-.324 37.767 22.044z" fill="#DFA478"/><path fill="#F7F7E7" d="M177.837 78.335l-55.995-40.73 13.22-18.121 45.178 32.861 12.333 7.184z"/><path fill="#F02E2D" d="M192.573 68.366L239.989.652h-97.044l-14.919 20.11z"/><path d="M162.227.653h-19.282l-14.92 20.108 13.857 10.127c1.112-2.632 18.671-28.064 20.345-30.235" fill="#F55B59"/></g></svg>