<svg width="120" height="120" xmlns="http://www.w3.org/2000/svg"><defs><linearGradient x1="50%" y1="0%" x2="50%" y2="100%" id="a"><stop stop-color="#F98683" offset="0%"/><stop stop-color="#F02E2D" offset="100%"/></linearGradient><linearGradient x1="50%" y1="-300.82%" x2="50%" y2="244.121%" id="b"><stop stop-color="#F98683" offset="0%"/><stop stop-color="#F02E2D" offset="100%"/></linearGradient><linearGradient x1="50%" y1="-81.031%" x2="50%" y2="404.739%" id="c"><stop stop-color="#F98683" offset="0%"/><stop stop-color="#F02E2D" offset="100%"/></linearGradient><linearGradient x1="50%" y1="-19.6%" x2="50%" y2="272.021%" id="d"><stop stop-color="#F98683" offset="0%"/><stop stop-color="#F02E2D" offset="100%"/></linearGradient></defs><g fill="none" fill-rule="evenodd"><path d="M0 0h120v120H0z"/><path d="M116 116h-4.528c.34-.626.528-1.296.528-2V58c0-3.42-4.298-6-10-6s-10 2.58-10 6v27.158C90.348 84.434 88.298 84 86 84c-5.702 0-10 2.58-10 6v24c0 .704.187 1.376.527 2H72V54a2 2 0 0 0-2-2H20V20h14a2 2 0 0 0 2-2V4h80v112zm-9.563-56.824c-2.355 1.062-6.483 1.078-8.91-.014C96.281 58.628 96 58.08 96 58c0-.396 1.93-2 6-2s6 1.604 6 2c0 .08-.282.628-1.563 1.176zM108 66c0 .08-.282.628-1.563 1.176-2.355 1.062-6.483 1.078-8.91-.014C96.281 66.628 96 66.08 96 66v-3.146c1.693.748 3.764 1.146 6 1.146 2.25 0 4.334-.402 6-1.144V66zm0 8c0 .08-.282.628-1.563 1.176-2.355 1.062-6.483 1.078-8.91-.014C96.281 74.628 96 74.08 96 74v-3.146c1.693.748 3.764 1.146 6 1.146 2.25 0 4.334-.402 6-1.144V74zm0 8c0 .08-.282.628-1.563 1.176-2.355 1.062-6.483 1.078-8.91-.014C96.281 82.628 96 82.08 96 82v-3.146c1.693.748 3.764 1.146 6 1.146 2.25 0 4.334-.402 6-1.144V82zm0 8c0 .08-.282.628-1.563 1.176-2.355 1.062-6.483 1.078-8.91-.014C96.281 90.628 96 90.08 96 90v-3.146c1.693.748 3.764 1.146 6 1.146 2.25 0 4.334-.402 6-1.144V90zm0 8c0 .08-.282.628-1.563 1.176-2.355 1.062-6.483 1.078-8.91-.014C96.281 98.628 96 98.08 96 98v-3.146c1.693.748 3.764 1.146 6 1.146 2.25 0 4.334-.402 6-1.144V98zm0 8c0 .08-.282.628-1.563 1.176-2.355 1.062-6.483 1.078-8.91-.014C96.281 106.628 96 106.08 96 106v-3.146c1.693.748 3.764 1.146 6 1.146 2.25 0 4.334-.402 6-1.144V106zm0 8c0 .08-.282.628-1.563 1.176-2.355 1.062-6.483 1.078-8.91-.014C96.281 114.628 96 114.08 96 114v-3.146c1.693.748 3.764 1.146 6 1.146 2.25 0 4.334-.402 6-1.144V114zM90.438 91.176c-2.356 1.062-6.484 1.078-8.91-.014C80.28 90.628 80 90.08 80 90c0-.396 1.93-2 6-2s6 1.604 6 2c0 .08-.282.628-1.562 1.176zM92 98c0 .08-.282.628-1.562 1.176-2.356 1.062-6.484 1.078-8.91-.014C80.28 98.628 80 98.08 80 98v-3.146c1.693.748 3.764 1.146 6 1.146 2.25 0 4.334-.402 6-1.144V98zm0 8c0 .08-.282.628-1.562 1.176-2.356 1.062-6.484 1.078-8.91-.014C80.28 106.628 80 106.08 80 106v-3.146c1.693.748 3.764 1.146 6 1.146 2.25 0 4.334-.402 6-1.144V106zm0 8c0 .08-.282.628-1.562 1.176-2.356 1.062-6.484 1.078-8.91-.014C80.28 114.628 80 114.08 80 114v-3.146c1.693.748 3.764 1.146 6 1.146 2.25 0 4.334-.402 6-1.144V114zM68 61.716a7.779 7.779 0 0 1-1.074-.334c-.056-.024-.109-.056-.164-.08a8.067 8.067 0 0 1-1.368-.78 7.864 7.864 0 0 1-1.04-.858l-.02-.02a8.093 8.093 0 0 1-.856-1.036c-.073-.1-.138-.204-.207-.308a8.34 8.34 0 0 1-.572-1.052c-.025-.06-.059-.114-.086-.174-.14-.342-.237-.706-.334-1.07H68v5.712zm0 20.452c-.048.008-.093.026-.14.034-.547.098-1.079.23-1.594.4-.075.024-.144.05-.216.076-.088.03-.172.066-.26.098a11.8 11.8 0 0 0-1.162.508c-.074.038-.152.07-.227.11-.093.05-.185.102-.277.154-.07.04-.139.084-.208.126-.303.178-.595.366-.878.57-.097.068-.188.14-.282.21-.134.102-.277.198-.406.306a12.105 12.105 0 0 0-1.38 1.358c-.044.05-.092.098-.136.15-.135.158-.256.322-.38.486-.072.094-.144.188-.215.286-.166.232-.32.472-.47.718l-.16.26c-.073.126-.147.252-.217.38-.04.076-.075.158-.115.236-.166.332-.317.67-.454 1.018-.037.098-.07.196-.107.294l-.012.032c-.036.098-.074.194-.108.292-.159.48-.284.972-.382 1.476l-.03.156c-.006.034-.018.064-.025.096H13.834c-.009-.052-.028-.098-.038-.148a12.334 12.334 0 0 0-.397-1.58c-.032-.1-.07-.194-.107-.292a12.31 12.31 0 0 0-.574-1.346c-.04-.078-.073-.158-.114-.236a12.285 12.285 0 0 0-.846-1.358c-.07-.098-.143-.19-.214-.286a12.06 12.06 0 0 0-2.303-2.3c-.094-.072-.185-.142-.28-.21a12.111 12.111 0 0 0-1.363-.85c-.075-.04-.153-.072-.226-.11-.44-.222-.894-.414-1.362-.582-.094-.034-.182-.07-.277-.102a11.708 11.708 0 0 0-1.593-.4c-.048-.004-.092-.022-.14-.032V65.832c.048-.008.092-.026.14-.034.544-.098 1.076-.23 1.593-.4.095-.03.185-.068.277-.102.468-.166.922-.36 1.362-.582.073-.038.151-.07.226-.11.475-.252.927-.538 1.362-.85.096-.068.187-.14.281-.21a12.118 12.118 0 0 0 2.303-2.3c.071-.094.143-.188.214-.286.31-.434.596-.884.846-1.358.04-.076.074-.158.114-.236.218-.434.41-.884.574-1.346.036-.098.073-.194.107-.292.168-.512.298-1.04.397-1.58.01-.048.03-.094.038-.146h44.332c.008.052.027.098.038.148.098.539.23 1.068.396 1.58.032.1.072.194.108.292.166.462.355.91.573 1.346.04.078.073.158.114.236.252.474.537.924.846 1.358.071.098.143.19.215.286a12.026 12.026 0 0 0 2.584 2.51c.434.312.888.598 1.361.85.075.04.153.072.227.11.44.221.893.414 1.361.582.095.034.183.07.277.102.515.17 1.05.302 1.593.4.048.008.093.026.141.034v16.334zM68 92h-5.717c.071-.268.151-.534.246-.79.044-.118.075-.242.124-.356.015-.034.034-.066.05-.098a7.97 7.97 0 0 1 .757-1.33c.025-.036.056-.068.082-.104.218-.3.45-.59.708-.858.115-.122.246-.228.37-.342.228-.21.464-.41.716-.592.147-.106.302-.206.458-.302a7.8 7.8 0 0 1 .8-.434c.164-.078.328-.156.498-.224.294-.116.6-.202.908-.282V92zm0 8H4v-4h64v4zm-64 8h64v-4H4v4zm0 8h64v-4H4v4zm0-29.716c.365.094.73.19 1.073.334.057.024.11.056.164.08.37.166.725.36 1.063.578.103.066.206.134.305.204a7.8 7.8 0 0 1 1.04.858l.021.02c.315.318.596.67.855 1.038a8.34 8.34 0 0 1 .779 1.36c.025.06.06.114.086.174.14.342.236.706.33 1.07H4v-5.716zM4 56h5.716a7.863 7.863 0 0 1-.334 1.07c-.027.06-.059.116-.086.174a8.094 8.094 0 0 1-.778 1.36c-.26.366-.54.72-.856 1.036l-.02.02a7.995 7.995 0 0 1-1.346 1.062 7.88 7.88 0 0 1-1.063.576c-.055.024-.107.056-.164.08-.34.148-.704.244-1.069.338V56zM32 6.828V16h-9.172L32 6.828zM118 0H34c-.042 0-.08.022-.122.024-.18.01-.353.046-.523.104-.06.022-.124.038-.183.066-.212.098-.416.22-.588.392l-16 16a2.017 2.017 0 0 0-.393.586c-.027.062-.044.122-.065.186-.059.168-.093.34-.105.518 0 .044-.02.082-.02.124v34H2a2 2 0 0 0-2 2v64a2 2 0 0 0 2 2h116a2 2 0 0 0 2-2V2a2 2 0 0 0-2-2z" fill="url(#a)"/><path d="M36 80c-3.309 0-6-2.692-6-6s2.691-6 6-6c3.308 0 6 2.692 6 6s-2.692 6-6 6m0-16c-5.515 0-10 4.486-10 10s4.485 10 10 10c5.514 0 10-4.486 10-10s-4.486-10-10-10" fill="url(#b)"/><path d="M64.586 20.586L46 39.172l-8.586-8.586a1.998 1.998 0 0 0-2.828 0l-10 10 2.828 2.828L36 34.828l8.586 8.586a1.996 1.996 0 0 0 2.828 0l20-20-2.828-2.828z" fill="url(#c)"/><path d="M92 44c-3.692 0-7.084-1.268-9.796-3.376L92.828 30h15.031c-.987 7.88-7.715 14-15.859 14zM76 28c0-8.144 6.12-14.872 14-15.862V27.17L79.376 37.794A15.896 15.896 0 0 1 76 28zm18-15.862c7.224.908 12.954 6.638 13.861 13.862h-13.86V12.138zM92 8c-11.028 0-20 8.972-20 20s8.972 20 20 20c11.027 0 20-8.972 20-20S103.027 8 92 8z" fill="url(#d)"/></g></svg>